<svg width="133" height="28" viewBox="0 0 133 28" fill="none" xmlns="http://www.w3.org/2000/svg">
<path d="M63.2081 25.6294H60.1855V2.76549H62.1691C65.7205 2.76549 66.9099 4.49094 66.9099 7.08803C66.9099 7.5204 67.1983 11.7672 63.708 12.5403C64.5954 12.7634 66.2672 13.319 67.5977 14.5446C68.994 15.7006 69.6488 17.4898 69.6488 19.544C69.6488 23.146 67.6659 25.6294 63.2081 25.6294ZM66.419 12.4656C68.7999 11.594 70.4426 9.90711 70.4426 7.23357C70.4426 3.10046 66.6648 1.32508 61.8669 1.32508H56.4072V27.0698H63.5475C68.9503 27.0698 73.635 24.8837 73.635 19.9168C73.635 15.9926 70.7074 13.2998 66.419 12.4656Z" fill="white"/>
<path d="M2.21435 26.2092C3.97078 27.113 6.20572 27.5137 8.12596 27.5137C11.4536 27.5137 17.318 26.3186 17.318 20.4797C17.318 16.3883 14.3612 14.0883 9.49192 10.7864C7.23849 9.18557 4.16936 7.56799 4.16936 4.93434C4.16936 2.7442 6.19368 1.43328 8.99693 1.43328C11.8109 1.43328 14.0117 2.76894 14.5406 3.11907L13.1508 0.700268C12.2109 0.170507 10.1378 -0.000209808 9.03682 -0.000209808C5.31713 -0.000209808 0.972298 1.57236 0.972298 6.00367C0.972298 9.50784 3.73253 11.4874 8.30492 14.7671C10.4284 16.2777 13.7652 18.6695 13.7652 21.6085C13.7652 24.3668 11.6123 26.0802 8.14557 26.0802C4.084 26.0802 1.1292 23.6683 0.421143 23.0338L2.21435 26.2092Z" fill="white"/>
<path d="M44.1617 14.1975C44.1617 7.22788 40.779 2.31674 35.7219 2.31674C30.6643 2.31674 27.2814 7.22788 27.2814 14.1975C27.2814 21.2051 30.6643 26.0782 35.7219 26.0782C40.779 26.0782 44.1617 21.2051 44.1617 14.1975ZM35.7219 27.5137C28.8339 27.5137 23.4879 22.0179 23.4879 14.1975C23.4879 6.56663 28.8339 0.881235 35.7219 0.881235C42.6099 0.881235 47.9402 6.56663 47.9402 14.1975C47.9402 22.0179 42.6101 27.5137 35.7219 27.5137Z" fill="white"/>
<path d="M116.161 18.0775H124.927L120.544 7.36555L116.161 18.0775ZM125.513 19.513H115.575L112.477 27.0703H111.003L121.79 0.753014L132.579 27.0703H128.611L125.513 19.513Z" fill="white"/>
<path d="M99.9586 1.33162V11.9059H86.1494V1.33162H82.3711V27.0708H86.1494V13.3414H99.9586V27.0708H103.737V1.33162H99.9586Z" fill="white"/>
</svg>
